# This file uses centimeters as units for non-parametric coordinates.

mtllib plane.mtl
g default
v -5.000000 -0.584630 5.000000
v 5.000000 -0.584630 5.000000
v -5.000000 -0.584630 -5.000000
v 5.000000 -0.584630 -5.000000
vt 0.000000 0.000000
vt 1.000000 0.000000
vt 0.000000 1.000000
vt 1.000000 1.000000
vn 0.000000 1.000000 0.000000
vn 0.000000 1.000000 0.000000
vn 0.000000 1.000000 0.000000
vn 0.000000 1.000000 0.000000
s 1
g pPlane1
usemtl initialShadingGroup
f 2/2/1 4/4/2 1/1/3
f 1/1/3 4/4/2 3/3/4
