# This file uses centimeters as units for non-parametric coordinates.

mtllib 2.mtl
g default
v -0.500000 -0.500000 0.500000
v 0.500000 -0.500000 0.500000
v -0.500000 0.500000 0.500000
v 0.500000 0.500000 0.500000
v -0.500000 0.500000 -0.500000
v 0.500000 0.500000 -0.500000
v -0.500000 -0.500000 -0.500000
v 0.500000 -0.500000 -0.500000
vt 0.375000 0.000000
vt 0.625000 0.000000
vt 0.375000 0.250000
vt 0.625000 0.250000
vt 0.375000 0.500000
vt 0.625000 0.500000
vt 0.375000 0.750000
vt 0.625000 0.750000
vt 0.375000 1.000000
vt 0.625000 1.000000
vt 0.875000 0.000000
vt 0.875000 0.250000
vt 0.125000 0.000000
vt 0.125000 0.250000
vn 0.000000 0.000000 1.000000
vn 0.000000 0.000000 1.000000
vn 0.000000 0.000000 1.000000
vn 0.000000 0.000000 1.000000
vn 0.000000 1.000000 0.000000
vn 0.000000 1.000000 0.000000
vn 0.000000 1.000000 0.000000
vn 0.000000 1.000000 0.000000
vn 0.000000 0.000000 -1.000000
vn 0.000000 0.000000 -1.000000
vn 0.000000 0.000000 -1.000000
vn 0.000000 0.000000 -1.000000
vn 0.000000 -1.000000 0.000000
vn 0.000000 -1.000000 0.000000
vn 0.000000 -1.000000 0.000000
vn 0.000000 -1.000000 0.000000
vn 1.000000 0.000000 0.000000
vn 1.000000 0.000000 0.000000
vn 1.000000 0.000000 0.000000
vn 1.000000 0.000000 0.000000
vn -1.000000 0.000000 0.000000
vn -1.000000 0.000000 0.000000
vn -1.000000 0.000000 0.000000
vn -1.000000 0.000000 0.000000
s off
g pCube1
usemtl initialShadingGroup
f 1/1/1 2/2/2 4/4/3 3/3/4
f 3/3/5 4/4/6 6/6/7 5/5/8
f 5/5/9 6/6/10 8/8/11 7/7/12
f 7/7/13 8/8/14 2/10/15 1/9/16
f 2/2/17 8/11/18 6/12/19 4/4/20
f 7/13/21 1/1/22 3/3/23 5/14/24
g default
v 1.087286 0.849893 -0.309017
v 1.073550 0.708520 -0.587786
v 1.052155 0.488325 -0.809017
v 1.025197 0.210863 -0.951057
v 0.995313 -0.096706 -1.000000
v 0.965429 -0.404275 -0.951057
v 0.938471 -0.681737 -0.809017
v 0.917076 -0.901931 -0.587785
v 0.903340 -1.043305 -0.309017
v 0.898607 -1.092019 0.000000
v 0.903340 -1.043305 0.309017
v 0.917076 -0.901931 0.587785
v 0.938471 -0.681737 0.809017
v 0.965429 -0.404275 0.951057
v 0.995313 -0.096706 1.000000
v 1.025197 0.210862 0.951057
v 1.052155 0.488324 0.809017
v 1.073550 0.708519 0.587785
v 1.087286 0.849893 0.309017
v 1.092019 0.898607 0.000000
v -0.995313 0.096706 0.000000
vt 0.737764 0.172746
vt 0.702254 0.103054
vt 0.646946 0.047746
vt 0.577254 0.012236
vt 0.500000 -0.000000
vt 0.422746 0.012236
vt 0.353054 0.047746
vt 0.297746 0.103054
vt 0.262236 0.172746
vt 0.250000 0.250000
vt 0.262236 0.327254
vt 0.297746 0.396946
vt 0.353054 0.452254
vt 0.422746 0.487764
vt 0.500000 0.500000
vt 0.577254 0.487764
vt 0.646946 0.452254
vt 0.702254 0.396946
vt 0.737764 0.327254
vt 0.750000 0.250000
vt 0.250000 0.500000
vt 0.275000 0.500000
vt 0.300000 0.500000
vt 0.325000 0.500000
vt 0.350000 0.500000
vt 0.375000 0.500000
vt 0.400000 0.500000
vt 0.425000 0.500000
vt 0.450000 0.500000
vt 0.475000 0.500000
vt 0.500000 0.500000
vt 0.525000 0.500000
vt 0.550000 0.500000
vt 0.575000 0.500000
vt 0.600000 0.500000
vt 0.625000 0.500000
vt 0.650000 0.500000
vt 0.675000 0.500000
vt 0.700000 0.500000
vt 0.725000 0.500000
vt 0.750000 0.500000
vt 0.500000 1.000000
vn 0.995313 -0.096706 -0.000000
vn 0.995313 -0.096706 -0.000000
vn 0.995313 -0.096706 -0.000000
vn 0.995313 -0.096706 -0.000000
vn 0.995313 -0.096706 -0.000000
vn 0.995313 -0.096706 -0.000000
vn 0.995313 -0.096706 -0.000000
vn 0.995313 -0.096706 -0.000000
vn 0.995313 -0.096706 -0.000000
vn 0.995313 -0.096706 -0.000000
vn 0.995313 -0.096706 -0.000000
vn 0.995313 -0.096706 -0.000000
vn 0.995313 -0.096706 -0.000000
vn 0.995313 -0.096706 -0.000000
vn 0.995313 -0.096706 -0.000000
vn 0.995313 -0.096706 -0.000000
vn 0.995313 -0.096706 -0.000000
vn 0.995313 -0.096706 -0.000000
vn 0.995313 -0.096706 -0.000000
vn 0.995313 -0.096706 -0.000000
vn -0.362855 0.889912 -0.276392
vn -0.375141 0.763463 -0.525731
vn -0.995313 0.096706 -0.000001
vn -0.394276 0.566515 -0.723607
vn -0.418389 0.318346 -0.850651
vn -0.445118 0.043248 -0.894427
vn -0.471847 -0.231850 -0.850651
vn -0.495959 -0.480019 -0.723607
vn -0.515095 -0.676967 -0.525731
vn -0.527381 -0.803415 -0.276393
vn -0.531614 -0.846987 0.000000
vn -0.527381 -0.803415 0.276393
vn -0.515095 -0.676967 0.525731
vn -0.495959 -0.480019 0.723607
vn -0.471846 -0.231849 0.850651
vn -0.445118 0.043248 0.894427
vn -0.418389 0.318346 0.850651
vn -0.394276 0.566515 0.723607
vn -0.375140 0.763464 0.525731
vn -0.362854 0.889912 0.276393
vn -0.358621 0.933483 0.000001
s off
g pCone1
usemtl initialShadingGroup
f 9/15/25 28/34/26 27/33/27 26/32/28 25/31/29 24/30/30 23/29/31 22/28/32 21/27/33 20/26/34 19/25/35 18/24/36 17/23/37 16/22/38 15/21/39 14/20/40 13/19/41 12/18/42 11/17/43 10/16/44
s 1
f 9/35/45 10/36/46 29/56/47
f 10/36/46 11/37/48 29/56/47
f 11/37/48 12/38/49 29/56/47
f 12/38/49 13/39/50 29/56/47
f 13/39/50 14/40/51 29/56/47
f 14/40/51 15/41/52 29/56/47
f 15/41/52 16/42/53 29/56/47
f 16/42/53 17/43/54 29/56/47
f 17/43/54 18/44/55 29/56/47
f 18/44/55 19/45/56 29/56/47
f 19/45/56 20/46/57 29/56/47
f 20/46/57 21/47/58 29/56/47
f 21/47/58 22/48/59 29/56/47
f 22/48/59 23/49/60 29/56/47
f 23/49/60 24/50/61 29/56/47
f 24/50/61 25/51/62 29/56/47
f 25/51/62 26/52/63 29/56/47
f 26/52/63 27/53/64 29/56/47
f 27/53/64 28/54/65 29/56/47
f 28/54/65 9/55/45 29/56/47
