# This file uses centimeters as units for non-parametric coordinates.

mtllib plat.mtl
g default
v 1.766223 0.445034 -1.617670
v 2.318993 1.079046 -0.986761
v 1.268896 1.070128 -0.933933
v 0.945010 0.079400 -1.072239
v 1.794934 -0.523985 -1.210545
v 2.644102 0.093830 -1.157717
v 2.689335 0.501869 -0.189713
v 1.839411 1.105254 -0.051407
v 0.990243 0.487439 -0.104235
v 1.315352 -0.497777 -0.275191
v 2.365449 -0.488859 -0.328019
v 1.868122 0.136236 0.355718
vt 1.000000 0.500000
vt 0.838104 0.676208
vt 0.088104 0.823792
vt 0.176208 0.500000
vt 0.088104 0.176208
vt 0.838104 0.323792
vt 0.676208 0.500000
vt 0.588104 0.823792
vt 0.338104 0.676208
vt 0.338104 0.323792
vt 0.588104 0.176208
vt 0.500000 0.500000
vt 1.088104 0.823792
vt 1.176208 0.500000
vt 1.088104 0.176208
vn -0.040859 0.722454 -0.690210
vn -0.040859 0.722454 -0.690210
vn -0.040859 0.722454 -0.690210
vn -0.617203 0.303133 -0.726066
vn -0.617203 0.303133 -0.726066
vn -0.617202 0.303133 -0.726066
vn -0.396546 -0.365549 -0.842096
vn -0.396546 -0.365549 -0.842096
vn -0.396546 -0.365549 -0.842096
vn 0.316171 -0.359496 -0.877951
vn 0.316171 -0.359496 -0.877951
vn 0.316171 -0.359496 -0.877951
vn 0.535998 0.312927 -0.784081
vn 0.535998 0.312927 -0.784081
vn 0.535998 0.312927 -0.784081
vn -0.010158 0.999397 -0.033211
vn -0.010158 0.999397 -0.033211
vn -0.010158 0.999397 -0.033211
vn -0.942702 0.320921 -0.091226
vn -0.942702 0.320921 -0.091226
vn -0.942702 0.320921 -0.091226
vn -0.585672 -0.761029 -0.278967
vn -0.585672 -0.761029 -0.278967
vn -0.585672 -0.761029 -0.278967
vn 0.567528 -0.751235 -0.336982
vn 0.567528 -0.751236 -0.336982
vn 0.567528 -0.751235 -0.336982
vn 0.923216 0.336768 -0.185096
vn 0.923216 0.336768 -0.185096
vn 0.923216 0.336768 -0.185097
vn 0.585672 0.761029 0.278967
vn 0.585672 0.761029 0.278967
vn 0.585672 0.761029 0.278967
vn -0.567528 0.751235 0.336982
vn -0.567528 0.751235 0.336982
vn -0.567528 0.751235 0.336982
vn -0.923216 -0.336768 0.185096
vn -0.923216 -0.336768 0.185096
vn -0.923216 -0.336768 0.185096
vn 0.010159 -0.999397 0.033211
vn 0.010159 -0.999397 0.033211
vn 0.010159 -0.999397 0.033211
vn 0.942702 -0.320921 0.091226
vn 0.942702 -0.320921 0.091226
vn 0.942702 -0.320921 0.091226
vn 0.396546 0.365549 0.842096
vn 0.396546 0.365549 0.842096
vn 0.396546 0.365549 0.842096
vn -0.316171 0.359496 0.877951
vn -0.316172 0.359496 0.877951
vn -0.316172 0.359496 0.877951
vn -0.535998 -0.312927 0.784081
vn -0.535998 -0.312927 0.784081
vn -0.535998 -0.312927 0.784081
vn 0.040859 -0.722454 0.690210
vn 0.040859 -0.722454 0.690210
vn 0.040859 -0.722454 0.690210
vn 0.617203 -0.303133 0.726066
vn 0.617203 -0.303133 0.726066
vn 0.617202 -0.303133 0.726066
s off
g pPlatonic1
usemtl initialShadingGroup
f 1/1/1 3/13/2 2/2/3
f 1/1/4 4/14/5 3/13/6
f 1/1/7 5/15/8 4/14/9
f 1/1/10 6/6/11 5/15/12
f 1/1/13 2/2/14 6/6/15
f 2/2/16 3/13/17 8/8/18
f 3/3/19 4/4/20 9/9/21
f 4/4/22 5/5/23 10/10/24
f 5/15/25 6/6/26 11/11/27
f 6/6/28 2/2/29 7/7/30
f 2/2/31 8/8/32 7/7/33
f 3/3/34 9/9/35 8/8/36
f 4/4/37 10/10/38 9/9/39
f 5/5/40 11/11/41 10/10/42
f 6/6/43 7/7/44 11/11/45
f 7/7/46 8/8/47 12/12/48
f 8/8/49 9/9/50 12/12/51
f 9/9/52 10/10/53 12/12/54
f 10/10/55 11/11/56 12/12/57
f 11/11/58 7/7/59 12/12/60
