# This file uses centimeters as units for non-parametric coordinates.

mtllib wood1.mtl
g default
v -5.084630 9.000000 5.000000
v -5.084630 -1.000000 5.000000
v -5.084630 9.000000 -5.000000
v -5.084630 -1.000000 -5.000000
vt 1.000000 0.000000
vt 1.000000 1.000000
vt 0.000000 0.000000
vt 0.000000 1.000000
vn 1.000000 0.000000 0.000000
vn 1.000000 0.000000 0.000000
vn 1.000000 0.000000 0.000000
vn 1.000000 0.000000 0.000000
vn 1.000000 0.000000 0.000000
vn 1.000000 0.000000 0.000000
s off
g pPlane1
usemtl initialShadingGroup
f 2/1/1 4/2/2 1/3/3
f 1/3/4 4/2/5 3/4/6
